<svg width="41" height="41" viewBox="0 0 41 41" fill="none" xmlns="http://www.w3.org/2000/svg">
<g clip-path="url(#clip0_0_137)">
<path d="M34.32 0.755859H5.9603C2.72043 0.755859 0.0846558 3.38434 0.0846558 6.61523V34.8965C0.0846558 38.1274 2.72043 40.7559 5.9603 40.7559H34.32C37.5599 40.7559 40.1957 38.1274 40.1957 34.8965V6.61523C40.1957 3.38434 37.5599 0.755859 34.32 0.755859ZM37.8454 34.8965C37.8454 36.835 36.2639 38.4121 34.32 38.4121H5.9603C4.01644 38.4121 2.43491 36.835 2.43491 34.8965V6.61523C2.43491 4.67676 4.01644 3.09961 5.9603 3.09961H34.32C36.2639 3.09961 37.8454 4.67676 37.8454 6.61523V34.8965Z" fill="#070707" stroke="#070707" stroke-width="0.5"/>
<path d="M18.965 17.2402C18.965 14.6554 16.8565 12.5527 14.2645 12.5527H7.21375V28.959H14.2645C16.8565 28.959 18.965 26.8563 18.965 24.2715C18.965 22.8726 18.3466 21.6155 17.3685 20.7559C18.3466 19.8962 18.965 18.6392 18.965 17.2402ZM16.6148 24.2715C16.6148 25.5639 15.5605 26.6152 14.2645 26.6152H9.564V21.9277H14.2645C15.5605 21.9277 16.6148 22.9791 16.6148 24.2715ZM9.564 19.584V14.8965H14.2645C15.5605 14.8965 16.6148 15.9478 16.6148 17.2402C16.6148 18.5327 15.5605 19.584 14.2645 19.584H9.564Z" fill="#070707" stroke="#070707" stroke-width="0.5"/>
<path d="M27.1909 17.2402C23.9511 17.2402 21.3153 19.8687 21.3153 23.0996C21.3153 26.3305 23.9511 28.959 27.1909 28.959C29.282 28.959 31.232 27.8369 32.2798 26.0302L30.2454 24.8565C29.6162 25.9414 28.4456 26.6152 27.1909 26.6152C25.6587 26.6152 24.352 25.6356 23.8669 24.2715H33.0666V23.0996C33.0666 19.8687 30.4308 17.2402 27.1909 17.2402ZM23.8669 21.9277C24.352 20.5636 25.6587 19.584 27.1909 19.584C28.7232 19.584 30.0299 20.5636 30.515 21.9277H23.8669Z" fill="#070707" stroke="#070707" stroke-width="0.5"/>
<path d="M22.4904 12.5527H31.8914V14.8965H22.4904V12.5527Z" fill="#070707" stroke="#070707" stroke-width="0.5"/>
</g>
<defs>
<clipPath id="clip0_0_137">
<rect width="40.111" height="40" fill="white" transform="translate(0.0846558 0.755859)"/>
</clipPath>
</defs>
</svg>
