<svg width="40" height="41" viewBox="0 0 40 41" fill="none" xmlns="http://www.w3.org/2000/svg">
<path d="M30.6637 7.65775L30.9695 7.27351L30.5908 6.96087C27.6754 4.55373 23.9728 3.11584 19.9219 3.11584C18.5027 3.11584 17.1268 3.31465 15.824 3.64036L15.0969 3.82215L15.544 4.42371C16.9346 6.29458 18.9323 9.12014 21.3247 13.5455L21.5313 13.9276L21.9386 13.7764C26.4659 12.0953 29.1788 9.5239 30.6637 7.65775ZM13.3634 4.89998L13.1184 4.57719L12.7519 4.75008C8.25572 6.87091 4.84936 10.9218 3.5047 15.8687L3.33862 16.4797L3.97147 16.4996C6.44736 16.5775 12.3656 16.4608 18.9232 14.7041L19.5417 14.5384L19.231 13.9785C16.6876 9.3948 14.5486 6.46126 13.3634 4.89998ZM32.8172 9.15896L32.4295 8.69832L32.0479 9.16405C30.3919 11.1853 27.5166 13.8106 22.9643 15.5919L22.458 15.79L22.6977 16.278C23.6792 18.2761 24.6314 20.4054 25.499 22.7049L25.6419 23.0838L26.0423 23.0227C29.3355 22.5198 32.3797 22.5198 34.6791 22.6999C35.2382 22.7463 35.599 22.7984 36.0188 22.859C36.1073 22.8718 36.1984 22.8849 36.2945 22.8985L36.8065 22.9707L36.8615 22.4566C36.9289 21.8259 36.9677 21.1927 36.9677 20.5381C36.9677 16.1845 35.3904 12.2161 32.8172 9.15896ZM20.6702 16.7863L20.4851 16.4151L20.0861 16.5285C12.3729 18.7198 5.57815 18.6528 3.4621 18.5674L2.98027 18.548L2.9434 19.0288L2.94082 19.0624C2.90425 19.5389 2.86672 20.028 2.86672 20.5477C2.86672 25.7814 5.13109 30.4535 8.70204 33.6504L9.07483 33.9841L9.40831 33.6111C10.3034 32.6098 11.504 31.3345 12.9637 30.0032L12.9656 30.0014C15.7119 27.4697 19.2453 24.791 23.0943 23.6222L23.6112 23.4652L23.4148 22.962C22.5533 20.7542 21.6257 18.702 20.6702 16.7863ZM30.1597 24.6824L30.1544 24.6827C29.1432 24.7315 28.0669 24.8289 26.9724 24.9749L26.3776 25.0543L26.563 25.625C27.4867 28.4688 28.2508 31.4814 28.7444 34.6152L28.8687 35.4041L29.5241 34.9477C32.7101 32.7291 35.1202 29.4321 36.2429 25.5618L36.4081 24.9922L35.8187 24.9256C34.3587 24.7608 32.5074 24.5946 30.1597 24.6824ZM24.5037 25.8678L24.3501 25.4144L23.8905 25.5481C20.5091 26.5319 16.9723 29.0831 14.2919 31.5434C12.9966 32.7221 11.9506 33.8409 11.1111 34.7573L10.6984 35.2079L11.2217 35.5233C13.7672 37.0577 16.7231 37.9603 19.9125 37.9603C22.3062 37.9603 24.5639 37.4546 26.6258 36.5636L26.9738 36.4132L26.9229 36.0375C26.4386 32.4637 25.5844 29.0575 24.5037 25.8678ZM0.867798 20.5381C0.867798 9.78487 9.43504 1.03906 19.9219 1.03906C30.4088 1.03906 38.9761 9.78487 38.9761 20.5381C38.9761 31.2913 30.4088 40.0371 19.9219 40.0371C9.43504 40.0371 0.867798 31.2913 0.867798 20.5381Z" fill="#070707" stroke="#070707"/>
</svg>
